<svg width="1341" height="530" viewBox="0 0 1341 530" fill="none" xmlns="http://www.w3.org/2000/svg">
<g clip-path="url(#clip0_59_14)">
<path d="M298.76 203.87C309.913 244.17 340.14 264.32 389.44 264.32C421.173 264.32 445.173 253.6 461.44 232.16L528.33 270.75C496.59 316.63 449.857 339.567 388.13 339.56C334.957 339.56 292.29 323.483 260.13 291.33C227.97 259.177 211.917 218.66 211.97 169.78C211.97 121.34 227.833 80.93 259.56 48.55C291.287 16.17 332.02 -0.0133251 381.76 8.23215e-06C428.92 8.23215e-06 467.827 16.2933 498.48 48.88C529.133 81.4666 544.467 121.767 544.48 169.78C544.414 181.216 543.34 192.623 541.27 203.87H298.76ZM297.48 139.55H461.48C456.76 117.69 447.007 101.4 432.22 90.68C417.433 79.96 400.607 74.6 381.74 74.6C359.44 74.6 341.003 80.2667 326.43 91.6C311.857 102.933 302.207 118.917 297.48 139.55Z" fill="#232323"/>
<path d="M789.11 5.90997H880.43L758.24 327.47H663.7L541.51 5.90997H632.83L710.78 230.91L789.11 5.90997Z" fill="#232323"/>
<path d="M1165.51 290.37C1132.49 323.157 1092.19 339.553 1044.6 339.56C997.013 339.567 956.82 323.17 924.02 290.37C891.22 257.57 874.82 217.373 874.82 169.78C874.82 122.187 891.22 81.9933 924.02 49.2C956.82 16.4 997.013 0 1044.6 0C1092.19 0 1132.49 16.4 1165.51 49.2C1198.52 82 1215.02 122.193 1215.03 169.78C1215.04 217.367 1198.53 257.563 1165.51 290.37ZM982.51 233.45C999.01 250.17 1019.7 258.53 1044.57 258.53C1069.44 258.53 1090.24 250.17 1106.97 233.45C1123.7 216.73 1132.07 195.507 1132.06 169.78C1132.05 144.053 1123.69 122.83 1106.97 106.11C1090.25 89.39 1069.46 81.03 1044.59 81.03C1019.72 81.03 999.04 89.39 982.54 106.11C966.026 122.83 957.773 144.053 957.78 169.78C957.787 195.507 966.04 216.73 982.54 233.45H982.51Z" fill="#232323"/>
<path d="M82.96 5.90997H0V327.47H82.96V5.90997Z" fill="#232323"/>
<path d="M143.41 120.9C176.796 120.9 203.86 93.8356 203.86 60.45C203.86 27.0644 176.796 0 143.41 0C110.024 0 82.96 27.0644 82.96 60.45C82.96 93.8356 110.024 120.9 143.41 120.9Z" fill="#232323"/>
<path d="M1280 338.91C1313.39 338.91 1340.45 311.846 1340.45 278.46C1340.45 245.074 1313.39 218.01 1280 218.01C1246.61 218.01 1219.55 245.074 1219.55 278.46C1219.55 311.846 1246.61 338.91 1280 338.91Z" fill="white"/>
<path d="M46.9701 526.66L0.600098 388.59H30.1801L63.9701 494.74L97.4701 388.59H127.25L80.6701 526.66H46.9701Z" fill="#232323"/>
<path d="M147.97 416.21C143.858 416.146 139.933 414.483 137.025 411.576C134.117 408.668 132.455 404.742 132.39 400.63C132.386 398.58 132.793 396.55 133.588 394.66C134.384 392.77 135.551 391.06 137.02 389.63C138.413 388.116 140.106 386.909 141.991 386.086C143.877 385.263 145.913 384.842 147.97 384.85C150.054 384.821 152.12 385.227 154.038 386.042C155.956 386.856 157.684 388.061 159.11 389.58C160.581 391.009 161.749 392.72 162.547 394.609C163.344 396.499 163.753 398.529 163.75 400.58C163.763 402.623 163.358 404.648 162.56 406.529C161.762 408.41 160.588 410.109 159.11 411.52C157.673 413.023 155.943 414.214 154.027 415.021C152.111 415.828 150.049 416.232 147.97 416.21V416.21ZM135.31 526.66V428.04H160.75V526.66H135.31Z" fill="#232323"/>
<path d="M258.77 388.59H284.22V526.66H258.77V515.02C251.277 524.62 240.627 529.42 226.82 529.42C213.54 529.42 202.207 524.39 192.82 514.33C183.434 504.27 178.734 491.937 178.72 477.33C178.72 462.73 183.42 450.397 192.82 440.33C202.22 430.263 213.554 425.233 226.82 425.24C240.627 425.24 251.277 430.04 258.77 439.64V388.59ZM211.97 497.37C217.157 502.563 223.697 505.16 231.59 505.16C239.484 505.16 245.994 502.563 251.12 497.37C256.254 492.183 258.817 485.517 258.81 477.37C258.804 469.223 256.24 462.557 251.12 457.37C245.987 452.177 239.477 449.58 231.59 449.58C223.704 449.58 217.164 452.163 211.97 457.33C206.777 462.53 204.18 469.197 204.18 477.33C204.18 485.463 206.777 492.143 211.97 497.37Z" fill="#232323"/>
<path d="M328.97 487.8C332.383 500.16 341.653 506.34 356.78 506.34C366.507 506.34 373.87 503.053 378.87 496.48L399.38 508.31C389.653 522.39 375.32 529.427 356.38 529.42C340.08 529.42 326.996 524.49 317.13 514.63C307.263 504.77 302.333 492.343 302.34 477.35C302.34 462.49 307.206 450.097 316.94 440.17C326.673 430.243 339.163 425.28 354.41 425.28C368.87 425.28 380.803 430.28 390.21 440.28C399.617 450.28 404.317 462.64 404.31 477.36C404.286 480.866 403.952 484.363 403.31 487.81L328.97 487.8ZM328.57 468.08H378.87C377.423 461.367 374.423 456.367 369.87 453.08C365.38 449.804 359.947 448.074 354.39 448.15C347.55 448.15 341.883 449.893 337.39 453.38C332.897 456.867 329.963 461.777 328.59 468.11L328.57 468.08Z" fill="#232323"/>
<path d="M505.31 514.33C495.19 524.39 482.83 529.42 468.23 529.42C453.63 529.42 441.297 524.39 431.23 514.33C421.17 504.27 416.14 491.937 416.14 477.33C416.14 462.723 421.17 450.39 431.23 440.33C441.29 430.27 453.623 425.24 468.23 425.24C482.837 425.24 495.197 430.27 505.31 440.33C515.444 450.39 520.507 462.723 520.5 477.33C520.494 491.937 515.43 504.27 505.31 514.33ZM449.2 496.88C451.669 499.398 454.63 501.381 457.899 502.704C461.168 504.027 464.675 504.662 468.2 504.57C471.746 504.662 475.274 504.027 478.565 502.704C481.857 501.382 484.843 499.4 487.34 496.88C492.46 491.753 495.023 485.243 495.03 477.35C495.037 469.457 492.473 462.947 487.34 457.82C484.848 455.3 481.868 453.317 478.582 451.991C475.295 450.665 471.773 450.025 468.23 450.11C464.705 450.018 461.198 450.653 457.929 451.976C454.66 453.299 451.699 455.282 449.23 457.8C444.17 462.927 441.64 469.437 441.64 477.33C441.64 485.223 444.16 491.74 449.2 496.88Z" fill="#232323"/>
</g>
<defs>
<clipPath id="clip0_59_14">
<rect width="1340.45" height="529.42" fill="white"/>
</clipPath>
</defs>
</svg>
