<svg width="2096" height="478" viewBox="0 0 2096 478" fill="none" xmlns="http://www.w3.org/2000/svg">
<path d="M303.171 222.777C302.233 222.767 301.315 222.504 300.513 222.014C299.785 221.559 299.181 220.927 298.759 220.177C298.336 219.427 298.107 218.582 298.093 217.72V177.163C298.061 176.281 298.257 175.405 298.661 174.622C299.066 173.839 299.666 173.175 300.402 172.694C301.138 172.213 301.986 171.933 302.862 171.88C303.738 171.827 304.613 172.003 305.402 172.391L345.695 192.67C346.535 193.088 347.243 193.734 347.737 194.535C348.232 195.336 348.494 196.26 348.494 197.202C348.494 198.145 348.232 199.069 347.737 199.87C347.243 200.671 346.535 201.317 345.695 201.735L305.402 222.014C304.705 222.35 303.944 222.529 303.171 222.539V222.777ZM308.202 185.369V209.513L332.216 197.441L308.202 185.369Z" fill="white"/>
<path d="M240.762 233.322H135.212C132.655 233.328 130.126 232.78 127.798 231.715C125.47 230.651 123.398 229.094 121.723 227.151C120.047 225.209 118.808 222.926 118.089 220.459C117.37 217.991 117.189 215.397 117.557 212.853L137.965 69.2332C138.589 64.9665 140.713 61.0659 143.952 58.2385C147.191 55.4111 151.33 53.8441 155.62 53.8215H313.517C317.812 53.8425 321.958 55.4078 325.205 58.2345C328.451 61.0612 330.585 64.9626 331.22 69.2332L338.196 118.188C338.308 118.965 338.267 119.756 338.075 120.517C337.883 121.278 337.544 121.994 337.077 122.623C336.609 123.252 336.024 123.783 335.352 124.184C334.681 124.586 333.938 124.85 333.165 124.963C332.393 125.076 331.605 125.035 330.848 124.842C330.091 124.648 329.38 124.307 328.754 123.838C328.128 123.368 327.6 122.779 327.201 122.104C326.802 121.43 326.538 120.683 326.426 119.906L319.212 70.9509C319.008 69.5258 318.301 68.2218 317.221 67.2761C316.141 66.3304 314.76 65.8058 313.327 65.7978H155.62C154.187 65.8058 152.806 66.3304 151.726 67.2761C150.646 68.2218 149.939 69.5258 149.735 70.9509L129.327 214.57C129.195 215.418 129.25 216.285 129.488 217.11C129.726 217.934 130.141 218.696 130.703 219.342C131.257 220.001 131.948 220.531 132.726 220.893C133.505 221.256 134.354 221.443 135.212 221.441H240.762C242.335 221.441 243.844 222.07 244.957 223.188C246.069 224.307 246.694 225.824 246.694 227.405C246.694 228.987 246.069 230.504 244.957 231.623C243.844 232.741 242.335 233.37 240.762 233.37V233.322Z" fill="white"/>
<path d="M192.923 119.667C188.229 119.667 183.641 118.268 179.739 115.646C175.837 113.025 172.795 109.299 170.999 104.94C169.203 100.58 168.733 95.7835 169.649 91.1557C170.564 86.5279 172.824 82.2769 176.143 78.9404C179.462 75.604 183.69 73.3318 188.293 72.4113C192.896 71.4908 197.668 71.9632 202.004 73.7689C206.34 75.5746 210.046 78.6324 212.653 82.5557C215.261 86.4789 216.652 91.0915 216.652 95.8099C216.652 102.137 214.152 108.205 209.702 112.679C205.252 117.154 199.216 119.667 192.923 119.667ZM192.923 83.7383C190.571 83.7383 188.271 84.4384 186.314 85.7502C184.358 87.062 182.831 88.9268 181.926 91.1096C181.022 93.2924 180.781 95.6955 181.233 98.0161C181.685 100.337 182.81 102.471 184.466 104.149C186.123 105.828 188.237 106.976 190.541 107.449C192.846 107.922 195.238 107.698 197.416 106.806C199.594 105.914 201.461 104.394 202.781 102.437C204.102 100.481 204.816 98.1745 204.835 95.8099C204.847 94.2292 204.549 92.6616 203.956 91.1975C203.363 89.7335 202.487 88.4019 201.38 87.2797C200.272 86.1575 198.955 85.2668 197.503 84.6589C196.052 84.0511 194.495 83.7382 192.923 83.7383V83.7383Z" fill="white"/>
<path d="M276.214 119.667C271.521 119.667 266.933 118.268 263.031 115.646C259.128 113.025 256.087 109.299 254.291 104.94C252.495 100.58 252.025 95.7835 252.94 91.1557C253.856 86.5279 256.116 82.2769 259.435 78.9404C262.753 75.604 266.982 73.3318 271.585 72.4113C276.188 71.4908 280.959 71.9632 285.295 73.7689C289.631 75.5746 293.337 78.6324 295.945 82.5557C298.552 86.4789 299.944 91.0915 299.944 95.8099C299.944 102.137 297.444 108.205 292.994 112.679C288.543 117.154 282.508 119.667 276.214 119.667V119.667ZM276.214 83.7383C273.858 83.7383 271.555 84.4407 269.596 85.7566C267.637 87.0726 266.11 88.943 265.209 91.1314C264.307 93.3198 264.071 95.7278 264.531 98.0509C264.99 100.374 266.125 102.508 267.791 104.183C269.457 105.858 271.579 106.999 273.89 107.461C276.201 107.923 278.596 107.686 280.773 106.779C282.949 105.873 284.81 104.338 286.119 102.368C287.428 100.399 288.126 98.0832 288.126 95.7145C288.126 92.5382 286.871 89.492 284.637 87.246C282.403 85 279.373 83.7383 276.214 83.7383Z" fill="white"/>
<path d="M276.214 83.7383C274.641 83.7383 273.132 83.1099 272.019 81.9914C270.907 80.8728 270.282 79.3558 270.282 77.774V48.0958C270.457 43.2706 269.662 38.4594 267.947 33.9497C266.231 29.44 263.628 25.3243 260.295 21.8484C256.961 18.3725 252.965 15.6079 248.545 13.7195C244.124 11.8312 239.371 10.858 234.568 10.858C229.766 10.858 225.012 11.8312 220.592 13.7195C216.172 15.6079 212.176 18.3725 208.842 21.8484C205.509 25.3243 202.906 29.44 201.19 33.9497C199.474 38.4594 198.68 43.2706 198.855 48.0958V78.0126C198.722 79.5084 198.037 80.9001 196.935 81.9138C195.833 82.9274 194.393 83.4895 192.899 83.4895C191.405 83.4895 189.965 82.9274 188.863 81.9138C187.761 80.9001 187.076 79.5084 186.943 78.0126V48.0958C186.943 35.397 191.961 23.2182 200.892 14.2388C209.824 5.25931 221.937 0.214691 234.568 0.214691C247.199 0.214691 259.313 5.25931 268.245 14.2388C277.176 23.2182 282.194 35.397 282.194 48.0958V78.0126C282.132 79.561 281.474 81.0245 280.358 82.0932C279.241 83.1619 277.755 83.7519 276.214 83.7383V83.7383Z" fill="white"/>
<path d="M317.884 257.274C306.113 257.274 294.606 253.765 284.819 247.191C275.032 240.616 267.404 231.271 262.9 220.338C258.395 209.405 257.217 197.375 259.513 185.768C261.809 174.161 267.477 163.5 275.801 155.132C284.124 146.764 294.728 141.066 306.273 138.757C317.818 136.448 329.784 137.633 340.659 142.162C351.533 146.691 360.828 154.36 367.368 164.199C373.907 174.039 377.398 185.607 377.398 197.441C377.385 213.306 371.111 228.518 359.953 239.736C348.794 250.954 333.664 257.262 317.884 257.274V257.274ZM317.884 149.584C308.497 149.584 299.321 152.382 291.516 157.625C283.712 162.868 277.629 170.32 274.037 179.038C270.445 187.757 269.505 197.351 271.336 206.606C273.167 215.862 277.687 224.364 284.325 231.037C290.962 237.71 299.418 242.254 308.625 244.095C317.831 245.936 327.373 244.991 336.046 241.38C344.718 237.769 352.13 231.653 357.345 223.806C362.56 215.96 365.343 206.735 365.343 197.298C365.343 184.643 360.343 172.507 351.443 163.559C342.542 154.611 330.471 149.584 317.884 149.584Z" fill="white"/>
<path d="M422.389 210.992L434.919 194.674C449.726 211.564 477.632 222.73 504.684 222.73C539.424 222.73 561.635 208.702 561.635 186.371C561.635 165.759 545.974 156.025 502.406 148.2C448.302 139.325 426.945 122.721 426.945 90.0843C426.945 57.4478 457.699 35.6902 502.406 35.6902C528.998 35.3482 554.77 44.9372 574.734 62.6009L562.774 78.3466C546.252 63.5389 524.823 55.4726 502.691 55.7301C470.513 55.7301 448.872 69.758 448.872 90.3705C448.872 110.983 464.249 120.43 504.969 127.874C562.774 137.894 583.846 153.067 583.846 185.703C583.846 220.63 552.808 243.247 504.684 243.247C473.361 243.342 442.322 231.318 422.389 210.992Z" fill="white"/>
<path d="M627.699 194.674V117.09H599.223V98.4819H627.699V58.9746L648.771 56.9706V98.4819H693.478V117.09H648.771V194.674C648.771 211.851 653.896 223.016 671.836 223.016C679.156 222.666 686.327 220.815 692.908 217.576L699.458 235.04C690.233 239.595 680.119 242.039 669.843 242.197C640.513 242.197 627.699 225.02 627.699 194.674Z" fill="white"/>
<path d="M725.94 98.4819H744.924L745.208 125.393C755.46 106.307 771.121 96.1917 790.769 96.1917C802.371 96.0027 813.734 99.5102 823.232 106.212L813.74 123.961C806.705 119.308 798.43 116.912 790.01 117.09C764.667 117.09 747.012 138.562 747.012 169.194V239.907H725.94V98.4819Z" fill="white"/>
<path d="M830.446 169.194C830.446 125.965 859.491 95.6191 901.92 95.6191C949.379 95.6191 977.096 127.683 973.109 177.496H852.087C854.365 206.125 874.868 223.588 904.293 223.588C922.517 223.588 941.311 216.145 950.423 204.503L964.092 217.385C950.993 233.417 928.212 243.151 903.723 243.151C860.25 243.342 830.446 213.282 830.446 169.194ZM953.176 159.174C951.752 132.55 932.104 114.8 902.489 114.8C874.298 114.8 855.789 131.691 852.372 159.174H953.176Z" fill="white"/>
<path d="M996.459 169.194C996.459 125.965 1025.5 95.6191 1066.79 95.6191C1091.28 95.6191 1111.79 106.212 1122.89 123.102L1123.18 98.4819H1142.16V239.907H1123.18L1122.89 215.572C1111.79 232.463 1091.28 242.769 1066.79 242.769C1025.5 242.769 996.459 212.423 996.459 169.194ZM1069.36 223.016C1099.54 223.016 1121.18 201.258 1121.18 169.194C1121.18 137.13 1099.54 115.373 1069.36 115.373C1039.17 115.373 1017.53 137.13 1017.53 169.194C1017.53 201.258 1039.17 223.016 1069.36 223.016Z" fill="white"/>
<path d="M1185.25 98.482H1204.24L1204.52 119.667C1209.35 112.231 1215.99 106.167 1223.82 102.056C1231.65 97.945 1240.4 95.9257 1249.23 96.1917C1272.01 96.1917 1289.66 107.071 1297.64 125.679C1302.67 116.469 1310.14 108.839 1319.22 103.634C1328.3 98.4296 1338.64 95.8537 1349.08 96.1917C1384.68 96.1917 1406.32 119.094 1406.32 157.743V239.907H1385.25V158.793C1385.25 131.023 1372.15 115.564 1348.23 115.564C1324.31 115.564 1306.37 134.649 1306.37 160.797V239.907H1285.49V158.793C1285.49 131.023 1272.39 115.564 1248.18 115.564C1223.98 115.564 1206.32 134.649 1206.32 160.797V239.907H1185.25V98.482Z" fill="white"/>
<path d="M1438.4 210.992L1450.93 194.674C1465.74 211.564 1493.64 222.73 1520.7 222.73C1555.44 222.73 1577.65 208.702 1577.65 186.371C1577.65 165.759 1561.99 156.025 1518.42 148.2C1464.31 139.325 1442.96 122.721 1442.96 90.0843C1442.96 57.4478 1473.71 35.6902 1518.42 35.6902C1545.01 35.3482 1570.78 44.9372 1590.75 62.6009L1578.79 78.3466C1562.26 63.5389 1540.84 55.4726 1518.7 55.7301C1486.53 55.7301 1464.88 69.758 1464.88 90.3705C1464.88 110.983 1480.26 120.43 1520.98 127.874C1578.79 137.894 1599.86 153.067 1599.86 185.703C1599.86 220.63 1568.82 243.247 1520.7 243.247C1489.37 243.342 1458.24 231.318 1438.4 210.992Z" fill="white"/>
<path d="M1643.71 194.674V117.09H1615.24V98.4819H1643.71V58.9746L1664.78 56.9706V98.4819H1709.49V117.09H1664.78V194.674C1664.78 211.851 1669.91 223.016 1687.85 223.016C1695.17 222.666 1702.34 220.815 1708.92 217.576L1715.47 235.04C1706.25 239.595 1696.13 242.039 1685.86 242.197C1656.53 242.197 1643.71 225.02 1643.71 194.674Z" fill="white"/>
<path d="M1784.95 238.952L1727.71 98.3865H1750.5L1780.39 173.107L1796.91 215.191L1814.28 173.107L1845.89 98.3865H1868.67L1778.5 307.088H1755.43L1784.95 238.952Z" fill="white"/>
<path d="M1898 39.5073H1919.07V239.907H1898V39.5073Z" fill="white"/>
<path d="M1952.96 169.194C1952.96 125.965 1982 95.6191 2024.43 95.6191C2071.89 95.6191 2099.61 127.683 2095.62 177.496H1974.6C1976.88 206.125 1997.38 223.588 2026.8 223.588C2045.03 223.588 2063.82 216.145 2072.93 204.503L2086.6 217.385C2073.5 233.417 2050.72 243.151 2026.23 243.151C1982.57 243.342 1952.96 213.282 1952.96 169.194ZM2075.69 159.174C2074.26 132.55 2054.62 114.8 2025 114.8C1996.81 114.8 1978.3 131.691 1974.88 159.174H2075.69Z" fill="white"/>
<path d="M80.0167 183.842H5.6952C4.26837 183.712 2.9417 183.049 1.9757 181.986C1.00969 180.922 0.474121 179.533 0.474121 178.093C0.474121 176.652 1.00969 175.264 1.9757 174.2C2.9417 173.136 4.26837 172.474 5.6952 172.343H80.0167C80.8115 172.27 81.6127 172.365 82.3692 172.621C83.1256 172.877 83.8207 173.288 84.4101 173.829C84.9995 174.37 85.4703 175.029 85.7924 175.763C86.1145 176.497 86.2808 177.29 86.2808 178.093C86.2808 178.895 86.1145 179.689 85.7924 180.423C85.4703 181.157 84.9995 181.816 84.4101 182.357C83.8207 182.898 83.1256 183.309 82.3692 183.565C81.6127 183.821 80.8115 183.915 80.0167 183.842Z" fill="white"/>
<path d="M80.0167 149.345H23.0654C22.2706 149.418 21.4693 149.324 20.7129 149.068C19.9565 148.812 19.2614 148.4 18.672 147.859C18.0825 147.318 17.6118 146.66 17.2897 145.926C16.9676 145.192 16.8013 144.398 16.8013 143.596C16.8013 142.793 16.9676 142 17.2897 141.266C17.6118 140.531 18.0825 139.873 18.672 139.332C19.2614 138.791 19.9565 138.379 20.7129 138.124C21.4693 137.868 22.2706 137.773 23.0654 137.846H80.0167C80.8115 137.773 81.6127 137.868 82.3691 138.124C83.1256 138.379 83.8207 138.791 84.4101 139.332C84.9995 139.873 85.4703 140.531 85.7924 141.266C86.1145 142 86.2808 142.793 86.2808 143.596C86.2808 144.398 86.1145 145.192 85.7924 145.926C85.4703 146.66 84.9995 147.318 84.4101 147.859C83.8207 148.4 83.1256 148.812 82.3691 149.068C81.6127 149.324 80.8115 149.418 80.0167 149.345V149.345Z" fill="white"/>
<path d="M80.0167 114.896H45.7509C44.9561 114.968 44.1549 114.874 43.3984 114.618C42.642 114.362 41.9469 113.951 41.3575 113.41C40.7681 112.869 40.2974 112.21 39.9753 111.476C39.6532 110.742 39.4868 109.948 39.4868 109.146C39.4868 108.344 39.6532 107.55 39.9753 106.816C40.2974 106.082 40.7681 105.423 41.3575 104.882C41.9469 104.341 42.642 103.93 43.3984 103.674C44.1549 103.418 44.9561 103.324 45.7509 103.396H80.0167C80.8115 103.324 81.6126 103.418 82.3691 103.674C83.1255 103.93 83.8206 104.341 84.41 104.882C84.9994 105.423 85.4702 106.082 85.7923 106.816C86.1144 107.55 86.2808 108.344 86.2808 109.146C86.2808 109.948 86.1144 110.742 85.7923 111.476C85.4702 112.21 84.9994 112.869 84.41 113.41C83.8206 113.951 83.1255 114.362 82.3691 114.618C81.6126 114.874 80.8115 114.968 80.0167 114.896V114.896Z" fill="white"/>
<path d="M480.575 342.396C509.572 342.396 530.075 364.297 530.075 393.26C530.075 422.222 509.572 444.123 480.575 444.123C471.399 444.285 462.366 441.824 454.527 437.026C446.688 432.228 440.365 425.291 436.295 417.021L435.441 442.214H430.695V309.712H436.437V369.26C440.539 361.053 446.862 354.178 454.678 349.426C462.495 344.673 471.488 342.237 480.622 342.396H480.575ZM524.237 393.26C524.492 387.343 523.536 381.436 521.431 375.905C519.325 370.373 516.114 365.335 511.995 361.1C507.877 356.865 502.938 353.525 497.485 351.284C492.032 349.044 486.18 347.952 480.29 348.074C468.37 348.074 456.938 352.835 448.51 361.309C440.081 369.783 435.346 381.276 435.346 393.26C435.346 405.244 440.081 416.737 448.51 425.211C456.938 433.684 468.37 438.445 480.29 438.445C486.18 438.568 492.032 437.475 497.485 435.235C502.938 432.995 507.877 429.654 511.995 425.42C516.114 421.185 519.325 416.146 521.431 410.615C523.536 405.084 524.492 399.177 524.237 393.26V393.26Z" fill="white"/>
<path d="M480.574 445.316C471.922 445.486 463.377 443.372 455.791 439.186C448.205 435 441.843 428.888 437.339 421.459L436.627 443.455H429.461V308.52H437.576V364.679C442.109 357.359 448.455 351.348 455.992 347.233C463.529 343.118 471.999 341.041 480.574 341.204V341.204C509.952 341.204 531.261 363.104 531.261 393.26C531.261 423.415 509.952 445.316 480.574 445.316ZM435.251 412.25L437.339 416.497C441.3 424.58 447.471 431.36 455.129 436.042C462.787 440.724 471.614 443.114 480.574 442.93C508.576 442.93 528.888 422.031 528.888 393.26C528.888 364.488 508.576 343.589 480.574 343.589C471.662 343.406 462.88 345.77 455.251 350.408C447.623 355.045 441.461 361.764 437.481 369.784L435.203 374.27V310.905H431.834V441.022H434.302L435.251 412.25ZM480.29 439.638C468.055 439.638 456.322 434.752 447.67 426.054C439.019 417.356 434.159 405.56 434.159 393.26C434.159 380.959 439.019 369.163 447.67 360.465C456.322 351.768 468.055 346.882 480.29 346.882C506.44 346.882 525.424 366.397 525.424 393.26C525.424 420.123 506.44 439.638 480.29 439.638ZM480.29 349.267C468.684 349.267 457.555 353.902 449.348 362.152C441.142 370.403 436.532 381.592 436.532 393.26C436.532 404.927 441.142 416.117 449.348 424.367C457.555 432.617 468.684 437.252 480.29 437.252C491.895 437.252 503.025 432.617 511.231 424.367C519.437 416.117 524.047 404.927 524.047 393.26C524.047 381.592 519.437 370.403 511.231 362.152C503.025 353.902 491.895 349.267 480.29 349.267Z" fill="white"/>
<path d="M635.91 344.305L586.267 450.803C576.775 471.129 568.422 476.759 553.045 476.759H545.452V471.368H552.713C566.097 471.368 572.694 467.264 581.189 449.228L587.074 436.775L541.607 344.305H548.014L590.111 430.19L629.93 344.305H635.91Z" fill="white"/>
<path d="M552.903 477.952H544.123V470.175H552.571C564.768 470.175 571.27 467.217 579.907 448.704L585.555 436.775L539.519 343.112H548.537L548.869 343.78L589.731 427.519L628.791 343.112H637.57L587.358 451.328C578.104 471.225 569.419 477.952 552.903 477.952ZM546.496 475.567H552.903C568.469 475.567 576.3 469.459 585.175 450.326L634.058 345.355H630.499L589.969 432.862L547.255 345.355H543.506L588.402 436.584L582.28 449.61C573.975 467.312 567.378 472.417 552.76 472.417H546.686L546.496 475.567Z" fill="white"/>
<path d="M751.758 343.923V349.506H743.025C722.713 349.506 709.092 365.347 709.092 387.009V442.214H703.302V344.305H708.048L708.997 366.492C711.81 359.656 716.627 353.843 722.808 349.828C728.989 345.813 736.24 343.787 743.595 344.019L751.758 343.923Z" fill="white"/>
<path d="M710.278 443.407H702.115V343.208H708.997L709.804 361.959C713.145 356.004 718.041 351.079 723.963 347.715C729.884 344.352 736.607 342.678 743.405 342.874H752.897V350.842H743.025C723.757 350.842 710.278 365.776 710.278 387.152V443.407ZM704.488 441.022H707.905V387.105C707.905 364.297 722.143 348.408 743.025 348.408H750.571V345.212H743.405C736.276 344.953 729.24 346.901 723.248 350.792C717.255 354.683 712.596 360.33 709.899 366.969L707.858 371.741L706.719 345.593H704.488V441.022Z" fill="white"/>
<path d="M855.504 395.025H764.525C765.426 420.075 783.509 438.397 807.665 438.397C815.72 438.502 823.636 436.29 830.481 432.021C837.326 427.751 842.813 421.603 846.297 414.302H852.467C843.26 433.626 827.551 444.123 807.665 444.123C779.854 444.123 758.83 422.175 758.83 393.117C758.593 386.529 759.682 379.961 762.032 373.806C764.382 367.652 767.944 362.038 772.505 357.302C777.065 352.565 782.531 348.804 788.572 346.242C794.614 343.681 801.108 342.373 807.665 342.396C835.619 342.396 855.504 364.345 855.504 392.592C855.504 393.355 855.504 394.262 855.504 395.025ZM807.76 347.979C796.609 347.886 785.864 352.181 777.82 359.947C769.777 367.712 765.073 378.332 764.714 389.538H850.142C848.623 364.727 830.826 347.979 807.95 347.979H807.76Z" fill="white"/>
<path d="M807.665 445.316C779.19 445.316 757.643 422.842 757.643 393.117C757.643 363.391 779.142 341.204 807.665 341.204C836.189 341.204 856.691 363.295 856.691 392.592C856.691 393.355 856.691 394.309 856.691 395.073V396.409H765.759C765.958 407.415 770.474 417.897 778.322 425.573C786.17 433.249 796.716 437.498 807.665 437.395C815.51 437.518 823.224 435.37 829.889 431.208C836.553 427.046 841.887 421.045 845.253 413.92L845.585 413.3H854.318L853.511 414.97C844.162 434.58 827.883 445.316 807.665 445.316ZM807.665 343.589C780.471 343.589 760.206 364.87 760.206 393.117C760.206 421.363 780.661 442.93 807.665 442.93C816.672 443.049 825.516 440.514 833.106 435.639C840.696 430.763 846.701 423.761 850.379 415.495H846.914C843.288 422.846 837.662 429.012 830.689 433.277C823.717 437.542 815.684 439.731 807.523 439.59C782.749 439.59 764.097 420.839 763.196 395.073V393.832H854.223V392.592C854.318 364.631 834.243 343.589 807.665 343.589ZM851.091 390.731H763.338V389.443C763.733 377.941 768.577 367.049 776.837 359.083C785.098 351.116 796.124 346.705 807.57 346.786C831.585 346.786 849.43 364.345 850.901 389.443L851.091 390.731ZM765.901 388.345H848.575C846.63 365.204 829.971 349.172 807.665 349.172C797.044 349.102 786.799 353.122 779.033 360.406C771.266 367.691 766.568 377.688 765.901 388.345V388.345Z" fill="white"/>
<path d="M959.013 344.305L915.73 442.214H910.984L866.705 344.305H872.827L913.405 433.96L953.176 344.305H959.013Z" fill="white"/>
<path d="M916.49 443.407H910.083L864.711 343.208H873.444L913.263 431.145L952.274 343.208H960.864L916.49 443.407ZM911.744 441.022H915.066L957.352 345.593H953.935L913.405 436.966L872.02 345.593H868.556L911.744 441.022Z" fill="white"/>
<path d="M970.594 393.26C970.575 383.177 973.531 373.315 979.09 364.923C984.648 356.53 992.557 349.984 1001.82 346.112C1011.08 342.241 1021.27 341.218 1031.11 343.173C1040.95 345.129 1049.99 349.974 1057.09 357.097C1064.19 364.22 1069.02 373.3 1070.99 383.188C1072.95 393.075 1071.95 403.326 1068.12 412.643C1064.28 421.96 1057.79 429.925 1049.45 435.528C1041.11 441.132 1031.31 444.123 1021.28 444.123C1014.58 444.306 1007.92 443.117 1001.69 440.627C995.466 438.137 989.809 434.399 985.067 429.64C980.325 424.881 976.596 419.202 974.107 412.947C971.619 406.692 970.424 399.994 970.594 393.26V393.26ZM1066.08 393.26C1066.06 384.344 1063.42 375.634 1058.47 368.23C1053.53 360.827 1046.52 355.062 1038.32 351.666C1030.12 348.269 1021.1 347.392 1012.41 349.147C1003.71 350.901 995.73 355.208 989.469 361.522C983.209 367.837 978.95 375.876 977.233 384.623C975.515 393.37 976.416 402.433 979.82 410.665C983.225 418.898 988.981 425.931 996.36 430.876C1003.74 435.82 1012.41 438.454 1021.28 438.445C1027.22 438.596 1033.12 437.53 1038.64 435.311C1044.15 433.092 1049.15 429.767 1053.35 425.539C1057.54 421.31 1060.83 416.267 1063.02 410.718C1065.21 405.168 1066.25 399.228 1066.08 393.26V393.26Z" fill="white"/>
<path d="M1021.28 445.316C1011.04 445.306 1001.04 442.245 992.527 436.52C984.018 430.794 977.389 422.661 973.477 413.148C969.565 403.635 968.547 393.17 970.55 383.075C972.553 372.98 977.488 363.709 984.732 356.434C991.975 349.158 1001.2 344.205 1011.24 342.2C1021.29 340.196 1031.69 341.229 1041.15 345.171C1050.61 349.112 1058.7 355.784 1064.38 364.344C1070.07 372.903 1073.11 382.966 1073.11 393.26C1073.26 400.141 1072.02 406.981 1069.46 413.368C1066.91 419.755 1063.1 425.555 1058.26 430.42C1053.41 435.285 1047.64 439.113 1041.28 441.673C1034.93 444.233 1028.12 445.472 1021.28 445.316V445.316ZM1021.28 343.589C1011.51 343.599 1001.96 346.52 993.845 351.983C985.727 357.447 979.402 365.208 975.67 374.285C971.937 383.362 970.966 393.347 972.877 402.979C974.789 412.611 979.498 421.457 986.41 428.399C993.321 435.341 1002.12 440.067 1011.71 441.979C1021.29 443.892 1031.22 442.905 1040.25 439.145C1049.27 435.384 1056.98 429.017 1062.41 420.85C1067.84 412.683 1070.73 403.082 1070.73 393.26C1070.88 386.694 1069.69 380.166 1067.26 374.072C1064.82 367.978 1061.18 362.443 1056.56 357.801C1051.94 353.159 1046.43 349.507 1040.37 347.064C1034.3 344.622 1027.81 343.44 1021.28 343.589V343.589ZM1021.28 439.638C1012.15 439.666 1003.22 436.97 995.613 431.891C988.008 426.813 982.073 419.579 978.56 411.107C975.046 402.635 974.112 393.306 975.876 384.3C977.64 375.294 982.022 367.017 988.468 360.516C994.914 354.016 1003.13 349.585 1012.09 347.784C1021.04 345.982 1030.32 346.892 1038.76 350.398C1047.2 353.904 1054.41 359.849 1059.48 367.479C1064.56 375.109 1067.27 384.081 1067.27 393.26C1067.41 399.377 1066.32 405.46 1064.06 411.142C1061.8 416.824 1058.42 421.988 1054.12 426.321C1049.83 430.655 1044.7 434.069 1039.06 436.357C1033.41 438.646 1027.37 439.762 1021.28 439.638V439.638ZM1021.28 349.267C1015.49 349.074 1009.71 350.08 1004.32 352.224C998.933 354.368 994.039 357.603 989.944 361.728C985.849 365.854 982.642 370.782 980.522 376.206C978.401 381.631 977.413 387.435 977.618 393.26C977.636 401.938 980.213 410.415 985.022 417.622C989.831 424.828 996.657 430.439 1004.64 433.747C1012.62 437.055 1021.39 437.911 1029.86 436.206C1038.32 434.502 1046.09 430.313 1052.19 424.17C1058.28 418.028 1062.43 410.206 1064.11 401.693C1065.79 393.181 1064.92 384.359 1061.61 376.344C1058.3 368.328 1052.71 361.478 1045.53 356.659C1038.35 351.839 1029.91 349.267 1021.28 349.267V349.267Z" fill="white"/>
<path d="M1223.41 344.305L1180.08 442.214H1175.33L1130.77 344.305H1136.84L1177.47 433.96L1217.24 344.305H1223.41Z" fill="white"/>
<path d="M1180.89 443.407H1174.48L1129.11 343.208H1137.79L1138.13 343.923L1177.66 431.145L1216.67 343.208H1225.26L1180.89 443.407ZM1176.14 441.022H1179.46L1221.75 345.593H1218.33L1177.8 436.966L1136.42 345.593H1132.95L1176.14 441.022Z" fill="white"/>
<path d="M1244.67 312.432H1253.17V322.547H1244.67V312.432ZM1246 344.305H1251.79V442.214H1246V344.305Z" fill="white"/>
<path d="M1252.93 443.407H1244.67V343.208H1252.84L1252.93 443.407ZM1247.14 441.022H1250.56V345.593H1247.14V441.022ZM1254.16 323.74H1243.3V311.239H1254.16V323.74ZM1245.67 321.355H1251.79V313.625H1245.67V321.355Z" fill="white"/>
<path d="M1378.08 309.712V442.214H1373.33L1372.53 417.26C1368.48 425.51 1362.17 432.424 1354.34 437.184C1346.51 441.944 1337.49 444.352 1328.34 444.123C1314.93 444.123 1302.06 438.764 1292.57 429.226C1283.08 419.687 1277.75 406.75 1277.75 393.26C1277.75 379.77 1283.08 366.833 1292.57 357.294C1302.06 347.755 1314.93 342.396 1328.34 342.396C1337.44 342.157 1346.41 344.531 1354.21 349.238C1362.01 353.945 1368.32 360.791 1372.39 368.973V309.712H1378.08ZM1372.81 393.26C1372.81 381.516 1368.17 370.254 1359.91 361.95C1351.65 353.646 1340.45 348.981 1328.77 348.981C1317.09 348.981 1305.89 353.646 1297.63 361.95C1289.37 370.254 1284.73 381.516 1284.73 393.26C1284.54 399.172 1285.55 405.06 1287.69 410.571C1289.83 416.081 1293.05 421.098 1297.17 425.321C1301.29 429.543 1306.22 432.883 1311.66 435.138C1317.1 437.394 1322.94 438.519 1328.82 438.445C1334.71 438.568 1340.56 437.475 1346.02 435.235C1351.48 432.996 1356.42 429.656 1360.54 425.422C1364.66 421.188 1367.88 416.15 1369.99 410.618C1372.1 405.087 1373.06 399.179 1372.81 393.26V393.26Z" fill="white"/>
<path d="M1328.25 445.316C1314.52 445.316 1301.35 439.831 1291.64 430.069C1281.93 420.307 1276.47 407.066 1276.47 393.26C1276.47 379.454 1281.93 366.213 1291.64 356.45C1301.35 346.688 1314.52 341.204 1328.25 341.204C1336.75 341.037 1345.16 343.085 1352.64 347.148C1360.12 351.211 1366.44 357.152 1370.96 364.393V308.52H1379.12V443.407H1371.96L1371.25 421.65C1366.76 429.024 1360.43 435.089 1352.88 439.241C1345.34 443.393 1336.85 445.488 1328.25 445.316V445.316ZM1328.25 343.589C1315.15 343.589 1302.58 348.822 1293.31 358.137C1284.05 367.452 1278.84 380.086 1278.84 393.26C1278.84 406.433 1284.05 419.067 1293.31 428.382C1302.58 437.697 1315.15 442.93 1328.25 442.93C1337.17 443.146 1345.97 440.795 1353.62 436.155C1361.26 431.515 1367.42 424.777 1371.39 416.735L1373.48 412.441L1374.38 441.069H1376.89V310.905H1373.48V374.031L1371.25 369.498C1367.26 361.528 1361.1 354.861 1353.48 350.274C1345.87 345.688 1337.12 343.369 1328.25 343.589V343.589ZM1328.58 439.638C1316.35 439.638 1304.61 434.752 1295.96 426.054C1287.31 417.356 1282.45 405.56 1282.45 393.26C1282.45 380.959 1287.31 369.163 1295.96 360.465C1304.61 351.768 1316.35 346.882 1328.58 346.882C1340.81 346.882 1352.55 351.768 1361.2 360.465C1369.85 369.163 1374.71 380.959 1374.71 393.26C1374.71 405.56 1369.85 417.356 1361.2 426.054C1352.55 434.752 1340.81 439.638 1328.58 439.638ZM1328.58 349.267C1316.98 349.267 1305.85 353.902 1297.64 362.152C1289.43 370.403 1284.82 381.592 1284.82 393.26C1284.82 404.927 1289.43 416.117 1297.64 424.367C1305.85 432.617 1316.98 437.252 1328.58 437.252C1340.19 437.252 1351.32 432.617 1359.52 424.367C1367.73 416.117 1372.34 404.927 1372.34 393.26C1372.34 381.592 1367.73 370.403 1359.52 362.152C1351.32 353.902 1340.19 349.267 1328.58 349.267Z" fill="white"/>
<path d="M1501.62 395.025H1410.78C1411.68 420.075 1429.76 438.397 1453.92 438.397C1461.98 438.506 1469.91 436.295 1476.76 432.026C1483.61 427.757 1489.11 421.607 1492.6 414.302H1498.72C1489.52 433.626 1473.85 444.123 1453.92 444.123C1426.16 444.123 1405.08 422.175 1405.08 393.117C1404.85 386.529 1405.94 379.961 1408.29 373.806C1410.64 367.652 1414.2 362.038 1418.76 357.302C1423.32 352.565 1428.79 348.804 1434.83 346.242C1440.87 343.681 1447.36 342.373 1453.92 342.396C1481.92 342.396 1501.81 364.345 1501.81 392.592C1501.71 393.355 1501.67 394.262 1501.62 395.025ZM1410.78 389.538H1496.21C1494.69 364.727 1476.89 347.979 1454.02 347.979C1442.83 347.836 1432.04 352.109 1423.95 359.879C1415.87 367.65 1411.14 378.299 1410.78 389.538Z" fill="white"/>
<path d="M1453.83 445.316C1425.35 445.316 1403.8 422.842 1403.8 393.117C1403.8 363.391 1425.3 341.204 1453.83 341.204C1482.35 341.204 1502.9 363.295 1502.9 392.592C1502.9 393.355 1502.9 394.309 1502.9 395.073V396.218H1411.97C1412.15 407.22 1416.66 417.702 1424.5 425.379C1432.34 433.056 1442.88 437.307 1453.83 437.204C1461.68 437.33 1469.4 435.184 1476.07 431.022C1482.74 426.86 1488.09 420.858 1491.46 413.729L1491.75 413.109H1500.53L1499.72 414.779C1490.37 434.58 1474.04 445.316 1453.83 445.316ZM1453.83 343.589C1426.68 343.589 1406.37 364.87 1406.37 393.117C1406.37 421.363 1426.87 442.93 1453.83 442.93C1462.83 443.037 1471.67 440.497 1479.26 435.623C1486.84 430.749 1492.85 423.753 1496.54 415.495H1493.03C1489.41 422.849 1483.78 429.019 1476.81 433.285C1469.83 437.55 1461.8 439.737 1453.64 439.59C1428.86 439.59 1410.26 420.839 1409.31 395.073V393.832H1500.48C1500.48 393.403 1500.48 392.973 1500.48 392.592C1500.53 364.631 1480.45 343.589 1453.83 343.589ZM1497.25 390.731H1409.55V389.443C1409.94 377.941 1414.78 367.049 1423.05 359.083C1431.31 351.116 1442.33 346.705 1453.78 346.786C1477.79 346.786 1495.64 364.345 1497.16 389.443L1497.25 390.731ZM1411.82 388.345H1494.5C1492.55 365.204 1475.89 349.172 1453.59 349.172C1443.01 349.163 1432.82 353.21 1425.11 360.489C1417.39 367.767 1412.73 377.729 1412.06 388.345H1411.82Z" fill="white"/>
<path d="M1519.18 393.26C1519.16 383.177 1522.12 373.315 1527.67 364.923C1533.23 356.53 1541.14 349.984 1550.4 346.112C1559.66 342.241 1569.86 341.218 1579.69 343.173C1589.53 345.129 1598.57 349.974 1605.67 357.097C1612.77 364.22 1617.61 373.3 1619.57 383.188C1621.53 393.075 1620.54 403.326 1616.7 412.643C1612.87 421.96 1606.37 429.925 1598.03 435.528C1589.7 441.132 1579.89 444.123 1569.86 444.123C1563.17 444.306 1556.5 443.117 1550.28 440.627C1544.05 438.137 1538.39 434.399 1533.65 429.64C1528.91 424.881 1525.18 419.202 1522.69 412.947C1520.2 406.692 1519.01 399.994 1519.18 393.26V393.26ZM1614.67 393.26C1614.64 384.357 1611.99 375.663 1607.05 368.275C1602.11 360.887 1595.1 355.136 1586.91 351.748C1578.72 348.361 1569.72 347.49 1561.04 349.244C1552.36 350.998 1544.39 355.299 1538.13 361.604C1531.88 367.909 1527.63 375.935 1525.91 384.668C1524.2 393.401 1525.09 402.451 1528.49 410.673C1531.88 418.895 1537.62 425.921 1544.99 430.864C1552.35 435.807 1561.01 438.445 1569.86 438.445C1575.82 438.63 1581.75 437.588 1587.29 435.383C1592.82 433.179 1597.86 429.858 1602.07 425.625C1606.28 421.393 1609.59 416.338 1611.79 410.772C1613.99 405.206 1615.03 399.246 1614.86 393.26H1614.67Z" fill="white"/>
<path d="M1569.86 445.316C1559.63 445.297 1549.63 442.228 1541.12 436.496C1532.62 430.765 1526 422.628 1522.1 413.115C1518.19 403.601 1517.18 393.137 1519.19 383.046C1521.2 372.954 1526.14 363.688 1533.38 356.417C1540.63 349.146 1549.85 344.198 1559.89 342.197C1569.93 340.196 1580.34 341.233 1589.8 345.175C1599.25 349.118 1607.33 355.79 1613.02 364.349C1618.7 372.907 1621.74 382.968 1621.74 393.26C1621.89 400.145 1620.65 406.989 1618.09 413.379C1615.54 419.769 1611.72 425.572 1606.87 430.438C1602.02 435.303 1596.24 439.13 1589.88 441.687C1583.52 444.244 1576.71 445.479 1569.86 445.316V445.316ZM1569.86 343.589C1560.11 343.655 1550.59 346.624 1542.51 352.122C1534.43 357.62 1528.15 365.4 1524.46 374.482C1520.77 383.564 1519.84 393.54 1521.78 403.153C1523.73 412.766 1528.46 421.585 1535.38 428.498C1542.3 435.412 1551.11 440.109 1560.68 441.999C1570.25 443.888 1580.17 442.885 1589.18 439.116C1598.19 435.347 1605.88 428.981 1611.3 420.82C1616.71 412.659 1619.6 403.069 1619.6 393.26C1619.74 386.671 1618.54 380.122 1616.09 374.011C1613.63 367.901 1609.97 362.355 1605.32 357.71C1600.67 353.066 1595.13 349.419 1589.03 346.992C1582.94 344.565 1576.42 343.407 1569.86 343.589V343.589ZM1569.86 439.638C1560.73 439.666 1551.8 436.97 1544.2 431.891C1536.59 426.813 1530.66 419.579 1527.14 411.107C1523.63 402.635 1522.7 393.306 1524.46 384.3C1526.22 375.294 1530.61 367.017 1537.05 360.516C1543.5 354.016 1551.72 349.585 1560.67 347.784C1569.62 345.982 1578.9 346.892 1587.34 350.398C1595.78 353.904 1602.99 359.849 1608.07 367.479C1613.14 375.109 1615.85 384.081 1615.85 393.26C1616 399.377 1614.9 405.46 1612.64 411.142C1610.39 416.824 1607.01 421.988 1602.71 426.321C1598.41 430.655 1593.29 434.069 1587.64 436.357C1582 438.646 1575.95 439.762 1569.86 439.638V439.638ZM1569.86 349.267C1564.07 349.074 1558.3 350.08 1552.91 352.224C1547.53 354.368 1542.64 357.604 1538.54 361.731C1534.45 365.857 1531.25 370.786 1529.14 376.21C1527.02 381.634 1526.04 387.438 1526.25 393.26C1526.28 401.926 1528.86 410.39 1533.67 417.582C1538.48 424.774 1545.3 430.372 1553.27 433.669C1561.24 436.966 1570.01 437.814 1578.46 436.106C1586.91 434.398 1594.67 430.21 1600.76 424.072C1606.84 417.934 1610.98 410.121 1612.65 401.619C1614.32 393.117 1613.45 384.307 1610.15 376.303C1606.84 368.299 1601.25 361.459 1594.08 356.647C1586.91 351.836 1578.48 349.267 1569.86 349.267V349.267Z" fill="white"/>
</svg>
